<svg width="38" height="38" viewBox="0 0 38 38" fill="none" xmlns="http://www.w3.org/2000/svg">
<path d="M21 22L17 26L21 30" stroke="black"/>
<path d="M25.0622 15.5C25.7138 16.6286 26.0374 17.9167 25.9966 19.2193C25.9557 20.5219 25.5521 21.7872 24.8311 22.8728C24.11 23.9584 23.1003 24.8212 21.9155 25.364C20.7307 25.9067 19.4179 26.108 18.1249 25.9451" stroke="black" stroke-linecap="round"/>
<path d="M17 16L21 12L17 8" stroke="black"/>
<path d="M12.9378 22.5C12.2768 21.355 11.9535 20.0462 12.0054 18.7251C12.0573 17.404 12.4823 16.1246 13.2312 15.035C13.9801 13.9454 15.0223 13.0902 16.2371 12.5683C17.4519 12.0465 18.7896 11.8793 20.0955 12.0862" stroke="black" stroke-linecap="round"/>
</svg>
