<svg width="38" height="38" viewBox="0 0 38 38" fill="none" xmlns="http://www.w3.org/2000/svg">
<rect width="38" height="38" fill="white"/>
<path d="M11.833 26.167V28.5H9.5V26.167H11.833ZM15.167 22.833V25.167H12.833V22.833H15.167ZM18.5 19.5V21.833H16.167V19.5H18.5ZM21.833 16.167V18.5H19.5V16.167H21.833ZM25.167 12.833V15.167H22.833V12.833H25.167ZM28.5 9.5V11.833H26.167V9.5H28.5Z" fill="black" stroke="black"/>
<path d="M11.833 11.833H9.5V9.5H11.833V11.833ZM15.167 15.167H12.833V12.833L15.167 12.833V15.167ZM18.5 18.5H16.167V16.167H18.5V18.5ZM21.833 21.833H19.5V19.5H21.833V21.833ZM25.167 25.167H22.833V22.833H25.167V25.167ZM28.5 28.5H26.167V26.167H28.5V28.5Z" fill="black" stroke="black"/>
</svg>
