<svg width="38" height="38" viewBox="0 0 38 38" fill="none" xmlns="http://www.w3.org/2000/svg">
<path d="M15 17.5V15.7792C15 14.2095 15 13.4246 15.4533 12.8716C15.9066 12.3187 16.6763 12.1647 18.2155 11.8569L20.2155 11.4569C22.4291 11.0142 23.536 10.7928 24.268 11.3929C25 11.993 25 13.1218 25 15.3792V15.5V20.5V22.4505C25 22.8385 25 23.0325 24.9706 23.2021C24.8506 23.894 24.3765 24.4724 23.7215 24.7257C23.561 24.7878 23.3708 24.8258 22.9903 24.9019L22.9903 24.9019L22.6942 24.9612C22.4199 25.016 22.2827 25.0435 22.1714 25.053C21.0909 25.146 20.1332 24.3609 20.0124 23.2831C20 23.1721 20 23.0322 20 22.7525C20 22.518 20 22.4008 20.0098 22.302C20.1041 21.354 20.854 20.6041 21.802 20.5098C21.9008 20.5 22.018 20.5 22.2525 20.5H25V15.5L15 17.5V22.5V24.4505C15 24.8385 15 25.0325 14.9706 25.2021C14.8506 25.894 14.3765 26.4724 13.7215 26.7257C13.561 26.7878 13.3708 26.8258 12.9903 26.9019L12.6942 26.9612L12.6941 26.9612C12.4198 27.016 12.2827 27.0435 12.1714 27.053C11.0909 27.146 10.1332 26.3609 10.0124 25.2831C10 25.1721 10 25.0322 10 24.7525C10 24.518 10 24.4008 10.0098 24.302C10.1041 23.354 10.854 22.6041 11.802 22.5098C11.9008 22.5 12.018 22.5 12.2525 22.5H15V17.5Z" fill="#C7C7C7"/>
<path d="M15 22.5H12.2525C12.018 22.5 11.9008 22.5 11.802 22.5098C10.854 22.6041 10.1041 23.354 10.0098 24.302C10 24.4008 10 24.518 10 24.7525C10 25.0322 10 25.1721 10.0124 25.2831C10.1332 26.3608 11.0909 27.146 12.1714 27.053C12.2827 27.0435 12.4199 27.016 12.6942 26.9612L12.9903 26.9019C13.3708 26.8258 13.561 26.7878 13.7215 26.7257C14.3765 26.4724 14.8506 25.894 14.9706 25.2021C15 25.0325 15 24.8385 15 24.4505V15.7792C15 14.2095 15 13.4246 15.4533 12.8716C15.9066 12.3187 16.6763 12.1647 18.2155 11.8569L20.2155 11.4569C22.4291 11.0142 23.536 10.7928 24.268 11.3929C25 11.993 25 13.1218 25 15.3792V15.5M25 20.5V22.4505C25 22.8385 25 23.0325 24.9706 23.2021C24.8506 23.894 24.3765 24.4724 23.7215 24.7257C23.561 24.7878 23.3708 24.8258 22.9903 24.9019L22.6942 24.9612C22.4199 25.016 22.2827 25.0435 22.1714 25.053C21.0909 25.146 20.1332 24.3608 20.0124 23.2831C20 23.1721 20 23.0322 20 22.7525C20 22.518 20 22.4008 20.0098 22.302C20.1041 21.354 20.854 20.6041 21.802 20.5098C21.9008 20.5 22.018 20.5 22.2525 20.5H25ZM25 20.5V15.5M25 15.5L15 17.5" stroke="black"/>
</svg>
