<svg width="38" height="38" viewBox="0 0 38 38" fill="none" xmlns="http://www.w3.org/2000/svg">
<path d="M20.475 14.5H23.8834C24.2836 14.5 24.6731 14.3702 24.9933 14.13C25.821 13.5093 27.0074 13.6872 27.4489 14.6229C28.9361 17.7746 29.5162 22.8034 24.3904 26.7494C23.7979 27.2056 23.0631 26.5923 23.3408 25.8981C23.4464 25.6339 23.5159 25.3567 23.5473 25.0739L23.6399 24.2412C23.8644 22.22 23.0499 20.2227 21.476 18.9349L19.476 17.2986C18.9053 16.8316 18.7342 16.0316 19.064 15.3721C19.3312 14.8376 19.8775 14.5 20.475 14.5Z" fill="#C7C7C7" stroke="black"/>
<path d="M12.7348 16.9603L10.9887 17.2513C10.106 17.3984 9.41356 18.1154 9.45899 19.009C9.60762 21.9327 11.01 26.1459 15.7298 27.9702C16.6872 28.3402 17.6951 27.7064 17.9441 26.7106L18.0098 26.4476C18.2943 25.3097 17.7503 24.1268 16.7011 23.6022C15.3908 22.9471 14.6611 21.514 14.9019 20.069L15.0364 19.2619C15.262 17.9083 14.0885 16.7347 12.7348 16.9603Z" fill="#C7C7C7" stroke="black"/>
<circle cx="19" cy="19" r="9.5" stroke="black"/>
</svg>
