<svg width="38" height="38" viewBox="0 0 38 38" fill="none" xmlns="http://www.w3.org/2000/svg">
<path d="M9 27V25H11V27H9Z" fill="#7D7D7D"/>
<path d="M21 27V25H23V27H21Z" fill="#7D7D7D"/>
<path d="M23 25V23H25V25H23Z" fill="#7D7D7D"/>
<path d="M25 23V21H27V23H25Z" fill="#7D7D7D"/>
<path d="M27 21V19H29V21H27Z" fill="#7D7D7D"/>
<path d="M27 13V11H29V13H27Z" fill="#7D7D7D"/>
<path d="M26.5 11.5V13.5H28.5V18.5H26.5V20.5H24.5V22.5H22.5V24.5H20.5V26.5H11.5V24.5H9.5V19.5H11.5V17.5H13.5V15.5H15.5V13.5H17.5V11.5H26.5Z" fill="white" stroke="black"/>
<path d="M11 24V21H19V19H21V17H23V15H27V18H26V19H25V20H24V21H23V22H22V23H21V24H20V25H12V24H11Z" fill="#C7C7C7"/>
<path d="M20 20V24H22V22H24V20H26V16H24V18H22V20H20Z" fill="#7D7D7D"/>
</svg>
