<svg width="38" height="38" viewBox="0 0 38 38" fill="none" xmlns="http://www.w3.org/2000/svg">
<path d="M24 12V11H25V10H26V12H24Z" fill="white"/>
<path d="M12 26V23H11V26H12Z" fill="black"/>
<path d="M15 26H12V27H15V26Z" fill="black"/>
<path d="M27.5 8.5V10.5H29.5V13.5H27.5V15.5H25.5V21.5H24.5V19.5H21.5V21.5H19.5V23.5H17.5V25.5H15.5V27.5H11.5V29.5H8.5V26.5H10.5V22.5H12.5V20.5H14.5V18.5H16.5V16.5H18.5V13.5H16.5V12.5H22.5V10.5H24.5V8.5H27.5Z" fill="white" stroke="black"/>
<path d="M9 29V27H10V28H11V29H9Z" fill="black"/>
<rect x="11" y="26" width="1" height="1" fill="white"/>
<rect x="10" y="27" width="1" height="1" fill="white"/>
<rect x="12" y="24" width="2" height="2" fill="white"/>
<rect x="18" y="18" width="2" height="2" fill="white"/>
<rect x="19" y="12" width="2" height="2" fill="white"/>
<rect x="18" y="12" width="2" height="2" fill="#7D7D7D"/>
<rect x="22" y="20" width="2" height="2" fill="white"/>
<rect x="18" y="24" width="2" height="2" fill="white"/>
<rect x="16" y="26" width="2" height="2" fill="white"/>
<rect x="12" y="28" width="2" height="2" fill="white"/>
<rect x="20" y="22" width="2" height="2" fill="white"/>
<rect x="26" y="16" width="2" height="2" fill="white"/>
<rect x="16" y="20" width="2" height="2" fill="white"/>
<rect x="14" y="22" width="2" height="2" fill="white"/>
<path d="M27 9H25V11H23V16H22V19H25V15H27V13H29V11H27V9Z" fill="black"/>
<rect x="20" y="12" width="2" height="2" fill="black"/>
<rect x="22" y="12" width="2" height="2" fill="black"/>
<rect x="24" y="18" width="2" height="2" fill="#7D7D7D"/>
<rect x="22" y="20" width="2" height="2" fill="#7D7D7D"/>
<rect x="20" y="16" width="2" height="2" fill="black"/>
<rect x="20" y="16" width="2" height="2" fill="black"/>
<rect x="21" y="14" width="2" height="2" fill="black"/>
<rect x="21" y="14" width="2" height="2" fill="black"/>
<rect x="20" y="22" width="2" height="2" fill="#7D7D7D"/>
<rect x="18" y="24" width="2" height="2" fill="#7D7D7D"/>
<rect x="16" y="26" width="2" height="2" fill="#7D7D7D"/>
<rect x="24" y="10" width="2" height="2" fill="white"/>
</svg>
