<svg width="38" height="38" viewBox="0 0 38 38" fill="none" xmlns="http://www.w3.org/2000/svg">
<path d="M9 25V27V29H13V27H15V25H17V23H19V21H21V19H23V17H25V15H27V13H29V9H25V11H23V13H21V15H19V17H17V19H15V21H13V23H11V25H9Z" fill="#7D7D7D"/>
<path d="M10.5 27.5V28.5H9.5V27.5H10.5ZM12.5 25.5V26.5H11.5V25.5H12.5ZM14.5 23.5V24.5H13.5V23.5H14.5ZM16.5 21.5V22.5H15.5V21.5H16.5ZM18.5 19.5V20.5H17.5V19.5H18.5ZM20.5 17.5V18.5H19.5V17.5H20.5ZM22.5 15.5V16.5H21.5V15.5H22.5ZM24.5 13.5V14.5H23.5V13.5H24.5ZM26.5 11.5V12.5H25.5V11.5H26.5ZM28.5 9.5V10.5H27.5V9.5H28.5Z" stroke="black"/>
</svg>
