<svg width="38" height="38" viewBox="0 0 38 38" fill="none" xmlns="http://www.w3.org/2000/svg">
<path d="M24.5 9.5V11.5H26.5V13.5H28.5V16.5H26.5V18.5H24.5V20.5H22.5V22.5H20.5V24.5H18.5V26.5H16.5V28.5H9.5V21.5H11.5V19.5H13.5V17.5H15.5V15.5H17.5V13.5H19.5V11.5H21.5V9.5H24.5Z" fill="white" stroke="black"/>
<path d="M15 23V21H17V19H19V17H21V15H23V13H25V15H23V17H21V19H19V21H17V23H15Z" fill="black"/>
<path d="M17 21H15V23H17V21ZM17 21V19H19M17 21H19V19M19 19V17H21M19 19H21V17M21 17V15H23M21 17H23V15M23 15V13H25V15H23Z" stroke="black"/>
<path d="M11 25V22H10V28H16V27H13V25H11Z" fill="black"/>
<path d="M17.5 24H20V22H22V20H24V18H26V16H28V14H25.5V15.5H23.5V17.5H21.5V19.5H19.5V21.5H17.5V24Z" fill="#C7C7C7"/>
<path d="M13 27V25H16V27H13Z" fill="#7D7D7D"/>
<path d="M16 25H14.5H12.5V23.5H11V22H14.5V23.5H17.5V24H18V26H16V25Z" fill="#C7C7C7"/>
<path d="M17 29V27H19V29H17Z" fill="#7D7D7D"/>
<path d="M19 27V25H21V27H19Z" fill="#7D7D7D"/>
<path d="M21 25V23H23V25H21Z" fill="#7D7D7D"/>
<path d="M23 23V21H25V23H23Z" fill="#7D7D7D"/>
<path d="M25 21V19H27V21H25Z" fill="#7D7D7D"/>
<path d="M27 19V17H29V19H27Z" fill="#7D7D7D"/>
</svg>
