<svg width="38" height="38" viewBox="0 0 38 38" fill="none" xmlns="http://www.w3.org/2000/svg">
<path d="M19 10.6719C21.0325 10.6719 22.7814 11.8847 23.5632 13.6262C23.8254 14.2104 24.3596 14.6719 25 14.6719C26.6569 14.6719 28 16.015 28 17.6719C28 19.3287 26.6569 20.6719 25 20.6719H13C11.3431 20.6719 10 19.3287 10 17.6719C10 16.015 11.3431 14.6719 13 14.6719C13.6404 14.6719 14.1746 14.2104 14.4368 13.6262C15.2186 11.8847 16.9675 10.6719 19 10.6719Z" fill="#C7C7C7"/>
<path d="M25 20.6719L25 21.1719H25L25 20.6719ZM14.4368 13.6262L13.9807 13.4214L14.4368 13.6262ZM23.5632 13.6262L24.0193 13.4214L23.5632 13.6262ZM19 10.6719V11.1719C20.8285 11.1719 22.403 12.2625 23.107 13.8309L23.5632 13.6262L24.0193 13.4214C23.1599 11.5069 21.2366 10.1719 19 10.1719V10.6719ZM25 14.6719V15.1719C26.3807 15.1719 27.5 16.2912 27.5 17.6719H28H28.5C28.5 15.7389 26.933 14.1719 25 14.1719V14.6719ZM28 17.6719H27.5C27.5 19.0526 26.3807 20.1719 25 20.1719L25 20.6719L25 21.1719C26.933 21.1719 28.5 19.6049 28.5 17.6719H28ZM25 20.6719V20.1719H13V20.6719V21.1719H25V20.6719ZM13 20.6719V20.1719C11.6193 20.1719 10.5 19.0526 10.5 17.6719H10H9.5C9.5 19.6049 11.067 21.1719 13 21.1719V20.6719ZM10 17.6719H10.5C10.5 16.2912 11.6193 15.1719 13 15.1719V14.6719V14.1719C11.067 14.1719 9.5 15.7389 9.5 17.6719H10ZM14.4368 13.6262L14.893 13.8309C15.597 12.2625 17.1715 11.1719 19 11.1719V10.6719V10.1719C16.7634 10.1719 14.8401 11.5069 13.9807 13.4214L14.4368 13.6262ZM13 14.6719V15.1719C13.8957 15.1719 14.5771 14.5346 14.893 13.8309L14.4368 13.6262L13.9807 13.4214C13.7721 13.8861 13.385 14.1719 13 14.1719V14.6719ZM23.5632 13.6262L23.107 13.8309C23.4229 14.5346 24.1043 15.1719 25 15.1719V14.6719V14.1719C24.615 14.1719 24.2279 13.8861 24.0193 13.4214L23.5632 13.6262Z" fill="black"/>
<path d="M18.5459 25.499L19.3594 23.6719" stroke="black" stroke-linecap="square"/>
<path d="M23.3579 26.4125L24.5781 23.6719" stroke="black" stroke-linecap="square"/>
<path d="M13.1465 27.3261L14.7734 23.6719" stroke="black" stroke-linecap="square"/>
</svg>
